  <svg viewBox="-5 -3 40 36" fill="currentColor" xmlns="http://www.w3.org/2000/svg">
    <path
      d="M28.8086 0.520838C28.7794 0.294959 28.6243 0.10535 28.4087 0.0319322C28.1931 -0.0414856 27.9545 0.013944 27.7935 0.175076L10.7764 17.1921L1.17319 26.7953C1.06116 26.9073 0.998169 27.0594 0.998169 27.2179C0.998169 27.3764 1.06116 27.5283 1.17319 27.6404L2.19324 28.6604C3.05703 29.5243 4.20547 30 5.42709 30C6.64871 30 7.7972 29.5243 8.66099 28.6604L15.0303 22.2911L17.4937 24.7545C17.6059 24.8668 17.7581 24.9295 17.9162 24.9295C17.9262 24.9295 17.9362 24.9292 17.9462 24.9287C18.1149 24.9202 18.2722 24.8408 18.379 24.7099L23.7966 18.078C25.7944 15.6325 27.2468 12.8528 28.1136 9.81637C28.9804 6.78005 29.2143 3.65249 28.8086 0.520838ZM7.81583 27.8153C7.17781 28.4534 6.32949 28.8047 5.42714 28.8047C4.5248 28.8047 3.67648 28.4534 3.03846 27.8153L2.44098 27.2179L11.199 18.4599L14.1852 21.446L7.81583 27.8153ZM22.871 17.322L17.8715 23.4421L12.0441 17.6147L27.7475 1.91132C28.1428 7.44948 26.3979 13.0044 22.871 17.322Z"
    />
    <path
      d="M20.329 11.669C20.0957 11.4356 19.7173 11.4356 19.4839 11.669L14.1101 17.0428C13.8767 17.2762 13.8767 17.6546 14.1101 17.888C14.2268 18.0047 14.3797 18.063 14.5327 18.063C14.6856 18.063 14.8386 18.0047 14.9552 17.888L20.329 12.5142C20.5624 12.2808 20.5624 11.9024 20.329 11.669Z"
    />
    <path
      d="M22.2697 9.72846C22.0363 9.49502 21.6579 9.49508 21.4245 9.72846L21.0762 10.0768C20.8428 10.3102 20.8428 10.6886 21.0762 10.922C21.1929 11.0387 21.3459 11.097 21.4988 11.097C21.6517 11.097 21.8047 11.0386 21.9214 10.922L22.2697 10.5736C22.503 10.3402 22.503 9.96184 22.2697 9.72846Z"
    />
  </svg>